<svg xmlns="http://www.w3.org/2000/svg" aria-hidden="true" style="position:absolute;width:0;height:0;overflow:hidden">
  <defs>
  <!--header-->
    <symbol id="koshyk" viewBox="0 0 32 32">
      <path  d="M29.096 9.908A1.335 1.335 0 0 0 28 9.334H9.777L8.238 5.641a2.659 2.659 0 0 0-2.462-1.64H2.665v2.667h3.111l6.325 15.18a1.33 1.33 0 0 0 1.23.82h10.667c.556 0 1.053-.345 1.249-.864l4-10.667a1.325 1.325 0 0 0-.154-1.228zM23.076 20h-8.853l-3.333-8h15.187l-3 8zM14 28a2 2 0 1 0 .001-3.999A2 2 0 0 0 14 28zM23.333 28a2 2 0 1 0 .001-3.999A2 2 0 0 0 23.333 28z" />
    </symbol>
 
    <symbol id="poshuk" viewBox="0 0 32 32">
      <path  d="m28 25.333-6.872-6.872a9.337 9.337 0 0 0-1.902-12.366 9.337 9.337 0 0 0-12.495.636 9.332 9.332 0 0 0 11.73 14.396l6.872 6.872L28 25.332zm-21.333-12c0-3.676 2.991-6.667 6.667-6.667s6.667 2.991 6.667 6.667S17.01 20 13.334 20a6.675 6.675 0 0 1-6.667-6.667z" />
    </symbol>
         <symbol id="vchid" viewBox="0 0 32 32">
      <path  d="M12 2.667h12c1.467 0 2.667 1.2 2.667 2.667v21.333c0 1.467-1.2 2.667-2.667 2.667H12a2.675 2.675 0 0 1-2.667-2.667v-2.666H12v2.666h12V5.334H12v2.667H9.333V5.334c0-1.467 1.2-2.667 2.667-2.667z" />
      <path  d="m13.453 20.787 1.88 1.88L22 16l-6.667-6.667-1.88 1.88 3.44 3.453H4v2.667h12.893l-3.44 3.453z" />
    </symbol>
    <symbol id="phone" viewBox="0 0 32 32">
      <path  d="M23.2 29.333A20.559 20.559 0 0 1 2.667 8.8 6.133 6.133 0 0 1 8.8 2.667c.344-.003.688.029 1.027.093.327.048.649.129.96.24a1.338 1.338 0 0 1 .867 1l1.827 8a1.34 1.34 0 0 1-.346 1.226c-.173.187-.187.2-1.827 1.053a13.214 13.214 0 0 0 6.493 6.52c.867-1.653.88-1.667 1.067-1.84a1.34 1.34 0 0 1 1.226-.346l8 1.827a1.34 1.34 0 0 1 .96.866 5.752 5.752 0 0 1 .333 1.986 6.133 6.133 0 0 1-6.187 6.04zm-14.4-24a3.482 3.482 0 0 0-3.466 3.466 17.883 17.883 0 0 0 17.867 17.867 3.478 3.478 0 0 0 3.466-3.466v-.44l-6.187-1.427-.387.733c-.6 1.16-1.04 2-2.16 1.547a15.797 15.797 0 0 1-9.573-9.614c-.48-1.04.427-1.52 1.573-2.12l.733-.36-1.427-6.187h-.44z" />
    </symbol>

    <symbol id="porten" viewBox="0 0 126 32">
      <path  d="M.587 30.769V.481h4.846v30.288H.587zm7.052-13.673V12.38h2.899c2.106 0 3.245-1.024 3.418-3.072v-.519c-.202-2.279-1.341-3.476-3.418-3.591H7.639V.482h3.288c5.25.087 7.889 2.827 7.918 8.221 0 4.183-1.327 6.793-3.981 7.832-1.096.375-2.409.562-3.937.562H7.639zm13.587 5.236V8.096c0-1.529.649-3.087 1.947-4.673C24.904 1.346 27.096.293 29.75.264v4.803c-1.5.029-2.625.837-3.375 2.423-.231.519-.346.952-.346 1.298v13.543c0 1.558.808 2.712 2.423 3.462.49.231.909.346 1.255.346v4.846c-1.644 0-3.288-.591-4.933-1.774-2.337-1.731-3.519-4.024-3.548-6.88zm10.861 8.654V26.14c.75 0 1.529-.346 2.337-1.039.865-.779 1.313-1.702 1.341-2.769V8.789c0-.865-.375-1.702-1.125-2.51-.721-.779-1.572-1.183-2.553-1.212V.264c2.913 0 5.25 1.255 7.01 3.764 1.01 1.442 1.514 2.798 1.514 4.067v14.236c0 3.202-1.428 5.654-4.284 7.356-1.5.865-2.913 1.298-4.24 1.298zm11.985-.217V.481h4.846v30.288h-4.846zm7.053-12.764v-4.327h2.423c2.51 0 3.894-1.197 4.154-3.591.029-.26.043-.505.043-.736 0-2.423-1.096-3.851-3.288-4.284a8.821 8.821 0 0 0-1.255-.087h-2.077V.48h2.639c3.837.087 6.418 1.514 7.745 4.284.548 1.154.822 2.481.822 3.981-.029 3.202-1.01 5.524-2.942 6.966 1.5.865 2.452 2.409 2.856 4.63.058.375.101.721.13 1.039l.736 9.389h-4.5l-.649-7.702c-.231-2.423-.88-3.952-1.947-4.587-.635-.317-1.428-.476-2.38-.476h-2.51zM64.841 5.197V.481h18.736v4.716h-6.923v25.572h-4.846V5.197h-6.966zm21.246 25.572V.481h15.75v4.76H90.933v8.048h6.837v4.846h-6.837v7.832h10.904v4.803h-15.75zm19.254 0V8.182h.346l4.5 7.226v15.361h-4.846zm0-27.173V.481h4.024l15.23 24.447v5.841h-2.336L105.341 3.596zm14.409 9.519V.48h4.846v19.861h-.346l-4.5-7.226z" style="fill:var(--color1, #fff)"/>
    </symbol>
     <symbol id="hamburger" viewBox="0 0 32 32">
      <path d="M4 15h24v2H4v-2zM4 6h24v2H4V6zM4 24h24v2H4v-2z"/>
    </symbol>

    <symbol id="close" viewBox="0 0 32 32">
      <path d="M32 3.223 28.777 0 16 12.777 3.223 0 0 3.223 12.777 16 0 28.777 3.223 32 16 19.223 28.777 32 32 28.777 19.223 16 32 3.223z"/>
    </symbol>
  </defs>
</svg>